<svg viewBox="0 0 32 32" xmlns="http://www.w3.org/2000/svg">
  <!-- Background circle -->
  <circle cx="16" cy="16" r="15" fill="#4285f4" />
  
  <!-- Calculator outline -->
  <rect x="9" y="8" width="14" height="16" rx="2" fill="#ffffff" />
  
  <!-- Calculator display -->
  <rect x="11" y="10" width="10" height="3" rx="1" fill="#e0e0e0" />
  
  <!-- Heart symbol for donation -->
  <path d="M16,24 c1.5-1.5,3-2.5,3-4c0-1.1-0.9-2-2-2s-1,0.9-1,2c0-1.1-0.9-2-2-2s-2,0.9-2,2C12,21.5,14.5,22.5,16,24z" fill="#ea4335" />
  
  <!-- Dollar sign for financial aspect -->
  <path d="M16.5,17.5v-1c0.8-0.3,1.2-0.8,1.2-1.5c0-0.9-0.7-1.5-1.7-1.5c-1,0-1.7,0.6-1.7,1.5c0,0.7,0.5,1.2,1.2,1.5v1c-1,0.3-1.5,0.9-1.5,1.7c0,1,0.8,1.8,2,1.8c1.2,0,2-0.8,2-1.8C18,18.4,17.5,17.8,16.5,17.5z M16,14.5c0.3,0,0.5,0.2,0.5,0.5c0,0.3-0.2,0.5-0.5,0.5c-0.3,0-0.5-0.2-0.5-0.5C15.5,14.7,15.7,14.5,16,14.5z M16,19.5c-0.4,0-0.7-0.3-0.7-0.7c0-0.4,0.3-0.7,0.7-0.7c0.4,0,0.7,0.3,0.7,0.7C16.7,19.2,16.4,19.5,16,19.5z" fill="#34a853" />
</svg>